<?xml version="1.0" standalone="no"?>
<!DOCTYPE svg PUBLIC "-//W3C//DTD SVG 20010904//EN"
 "http://www.w3.org/TR/2001/REC-SVG-20010904/DTD/svg10.dtd">
<svg version="1.0" xmlns="http://www.w3.org/2000/svg"
 width="441.000000pt" height="306.000000pt" viewBox="0 0 441.000000 306.000000"
 preserveAspectRatio="xMidYMid meet">

<g transform="translate(0.000000,306.000000) scale(0.100000,-0.100000)"
fill="#000000" stroke="none">
<path d="M3151 2599 c-107 -12 -176 -30 -309 -81 -119 -46 -551 -262 -652
-325 -36 -23 -96 -61 -135 -84 -116 -70 -165 -102 -161 -106 2 -3 138 63 302
146 422 214 628 291 781 291 52 0 63 -3 68 -20 3 -10 -1 -33 -11 -51 -22 -43
-98 -124 -143 -152 l-36 -22 35 -6 c19 -3 64 -4 100 -1 61 5 69 8 135 62 89
73 207 196 229 237 33 64 12 113 -47 113 -18 0 -41 2 -52 4 -11 2 -58 0 -104
-5z"/>
<path d="M1253 2100 c-121 -25 -189 -103 -213 -243 -13 -74 -1 -186 26 -240
57 -112 191 -163 326 -123 60 17 77 31 83 68 8 42 -7 50 -53 28 -54 -26 -145
-27 -188 -1 -49 30 -76 83 -82 161 -6 93 4 149 36 199 48 75 140 93 232 46
l50 -25 0 45 c0 45 -1 47 -44 66 -54 24 -117 31 -173 19z"/>
<path d="M2647 2100 c-120 -30 -185 -107 -207 -246 -12 -77 0 -184 26 -237 57
-112 191 -163 327 -123 65 19 92 49 81 90 -3 14 -7 26 -8 26 -1 0 -21 -9 -44
-20 -53 -26 -137 -28 -181 -6 -51 27 -83 85 -89 165 -6 94 4 150 36 200 48 74
141 93 233 46 l49 -24 0 45 c0 43 -2 46 -42 64 -54 23 -131 32 -181 20z"/>
<path d="M1607 2085 c-15 -15 -17 -49 -17 -306 l0 -289 50 0 50 0 0 266 c0
208 3 265 13 262 6 -3 43 -94 80 -204 37 -109 78 -226 90 -259 l23 -60 50 -3
51 -3 94 266 c51 146 98 264 104 262 6 -2 11 -98 13 -265 l2 -262 45 0 45 0 0
299 c0 336 6 311 -80 311 -92 0 -88 4 -178 -232 -44 -117 -86 -213 -92 -213
-7 0 -45 92 -86 204 -40 113 -80 212 -89 220 -23 23 -146 28 -168 6z"/>
<path d="M2937 2094 c-4 -4 -7 -22 -7 -40 l0 -33 88 -3 87 -3 3 -262 2 -263
50 0 50 0 2 263 3 262 88 3 88 3 -3 37 -3 37 -221 3 c-121 1 -223 -1 -227 -4z"/>
<path d="M2785 1316 c-56 -21 -144 -66 -100 -50 78 26 113 34 133 29 28 -7 28
-17 -4 -54 -28 -34 -19 -39 25 -17 34 18 91 81 91 101 0 23 -74 18 -145 -9z"/>
<path d="M2282 1098 c2 -15 9 -22 20 -20 24 4 30 -12 32 -91 1 -65 3 -72 21
-72 18 0 21 8 25 80 3 54 9 80 18 81 28 2 32 5 32 24 0 18 -7 20 -76 20 -72 0
-75 -1 -72 -22z"/>
<path d="M2483 1027 c-18 -52 -33 -99 -33 -105 0 -21 42 -13 47 8 4 16 14 20
44 20 21 0 41 5 44 10 3 6 11 10 17 10 6 0 5 -7 -4 -17 -9 -10 -13 -24 -11
-30 5 -14 53 -18 53 -5 0 4 -14 51 -32 105 -32 94 -34 97 -63 97 -29 0 -31 -4
-62 -93z m74 -2 c11 -34 10 -35 -14 -35 -21 0 -24 4 -19 23 3 12 6 28 6 35 0
25 17 11 27 -23z"/>
<path d="M2690 1014 c0 -104 0 -105 23 -102 21 3 22 8 25 106 l3 102 -26 0
-25 0 0 -106z"/>
<path d="M2782 1018 c3 -102 3 -103 28 -103 22 0 25 5 28 38 3 29 7 37 23 37
23 0 61 18 71 34 4 6 8 25 8 43 0 42 -21 53 -100 53 l-61 0 3 -102z m103 37
c0 -13 -8 -21 -22 -23 -19 -3 -23 1 -23 23 0 22 4 26 23 23 14 -2 22 -10 22
-23z"/>
<path d="M2982 1018 l3 -103 55 0 c48 0 55 2 55 20 0 19 -4 21 -52 24 -32 1
-31 39 1 47 14 3 30 3 35 -1 7 -3 11 2 11 14 0 17 -6 21 -35 21 -28 0 -35 4
-35 19 0 16 8 20 37 23 27 2 39 8 41 21 3 15 -5 17 -58 17 l-61 0 3 -102z"/>
<path d="M3152 1018 c3 -95 4 -103 23 -103 19 0 20 8 23 103 l3 102 -26 0 -26
0 3 -102z"/>
<path d="M2820 820 c-13 -8 -12 -10 3 -10 9 0 17 5 17 10 0 12 -1 12 -20 0z"/>
<path d="M2916 803 c-20 -19 -26 -34 -22 -54 2 -16 -1 -30 -7 -33 -9 -3 -8 -5
1 -5 6 -1 12 -9 12 -18 1 -17 2 -17 15 1 10 14 11 22 3 36 -9 14 -8 24 5 44
10 14 24 26 32 26 7 0 16 4 19 9 4 5 -4 7 -16 3 -14 -3 -19 -2 -14 6 12 20 0
13 -28 -15z"/>
<path d="M2991 814 c0 -11 3 -14 6 -6 3 7 2 16 -1 19 -3 4 -6 -2 -5 -13z"/>
<path d="M3056 822 c-2 -4 -5 -42 -5 -85 0 -61 3 -77 14 -77 11 0 15 12 15 41
l0 41 44 -3 c25 -2 42 0 39 5 -4 5 -1 6 6 2 7 -5 10 -23 7 -47 -2 -21 0 -39 5
-39 5 0 9 39 9 86 0 50 -4 83 -9 79 -5 -3 -8 -19 -6 -35 3 -23 0 -30 -13 -31
-81 -5 -77 -7 -80 34 -3 34 -14 48 -26 29z m16 -89 c-6 -10 -9 -2 -10 24 0 33
1 35 9 15 5 -13 5 -30 1 -39z"/>
<path d="M2620 810 c0 -5 6 -10 14 -10 23 0 29 -18 28 -81 0 -33 4 -59 9 -59
5 0 9 32 9 70 0 63 2 70 20 70 11 0 20 4 20 8 0 4 -9 8 -20 8 -11 0 -20 -4
-20 -8 0 -4 -5 -8 -11 -8 -5 0 -7 5 -4 10 4 6 -5 10 -19 10 -14 0 -26 -4 -26
-10z"/>
<path d="M2768 796 c-3 -14 -2 -30 3 -37 4 -7 2 -20 -4 -31 -9 -14 -9 -23 0
-37 10 -15 10 -21 0 -24 -7 -3 7 -6 31 -6 31 -1 42 3 42 14 0 8 -7 15 -16 15
-8 0 -12 -4 -9 -10 3 -5 0 -10 -8 -10 -16 0 -27 21 -27 51 0 15 8 19 33 20
l32 1 -30 7 c-22 4 -31 13 -33 30 -2 13 2 28 10 32 10 7 9 9 -3 9 -10 0 -19
-10 -21 -24z"/>
<path d="M2927 686 c-7 -18 37 -30 61 -17 16 9 16 10 0 16 -10 4 -25 4 -34 1
-8 -3 -12 -2 -9 4 3 6 2 10 -3 10 -6 0 -12 -6 -15 -14z"/>
</g>
</svg>
